# xmcd
# 
# Track frame offsets:
#     150
#     15982
#     33745
#     49167
#     66107
#     81045
#     97262
#     114987
#     139877
#     159585
#     176517
#     194990
#     209147
#     226857
#     242182
#     259377
#     275350
#     286762
#     303175
#     322097
# 
# Disc length: 4614
# 
# Revision: 15
# Processed by: cddbd v1.5.2PL0 Copyright (c) Steve Scherf et al.
# Submitted via: fre:ac v1.0.27
# 
DISCID=2c120414
DTITLE=Various Artist - 5106
DYEAR=1998
DGENRE=Top 40
TTITLE0=Tavares - Heaven Must Be Missing An Angel
TTITLE1=Alexander O'Neal - Fake
TTITLE2=Boney M - Daddy Cool
TTITLE3=DeBarge - Rhythm Of The Night
TTITLE4=Rick James - Superfreak
TTITLE5=Kool and The Gang - Celebration
TTITLE6=Mary Jane Girls - In My House
TTITLE7=Gap Band - Burn Rubber On Me (Why You Wanna Hurt Me)
TTITLE8=Ohio Players - Fire
TTITLE9=Joyce Sims - Come Into My Life
TTITLE10=Rene and Angela - I'll Be Good
TTITLE11=Voggue - Dancing The Night Away
TTITLE12=Lipps Inc - Funky Town
TTITLE13=Cheryl Lynn - Got To Be Real
TTITLE14=Hamilton Bohannon - Let's Start The Dance
TTITLE15=Jacksons - Shake Your Body (Down To The Ground)
TTITLE16=Three Degrees - Year Of Decisions
TTITLE17=Dayton - The Sound Of Music
TTITLE18=Spargo - You And Me
TTITLE19=Stephanie Mills - Never Knew Love Like This Before
EXTD=OTS
EXTT0=
EXTT1=
EXTT2=
EXTT3=
EXTT4=
EXTT5=
EXTT6=
EXTT7=
EXTT8=
EXTT9=
EXTT10=
EXTT11=
EXTT12=
EXTT13=
EXTT14=
EXTT15=
EXTT16=
EXTT17=
EXTT18=
EXTT19=
PLAYORDER=
